<?xml version="1.0" encoding="UTF-8"?>
<svg xmlns="http://www.w3.org/2000/svg" xmlns:xlink="http://www.w3.org/1999/xlink" width="30px" height="30px" viewBox="0 0 30 30" version="1.1">
<defs>
<filter id="alpha" filterUnits="objectBoundingBox" x="0%" y="0%" width="100%" height="100%">
  <feColorMatrix type="matrix" in="SourceGraphic" values="0 0 0 0 1 0 0 0 0 1 0 0 0 0 1 0 0 0 1 0"/>
</filter>
<mask id="mask0">
  <g filter="url(#alpha)">
<rect x="0" y="0" width="30" height="30" style="fill:rgb(0%,0%,0%);fill-opacity:0.00392157;stroke:none;"/>
  </g>
</mask>
<clipPath id="clip1">
  <rect x="0" y="0" width="30" height="30"/>
</clipPath>
<g id="surface5" clip-path="url(#clip1)">
<path style=" stroke:none;fill-rule:evenodd;fill:rgb(82.352942%,58.431375%,12.156863%);fill-opacity:1;" d="M 14.078125 1.539062 C 14.089844 1.507812 14.109375 1.503906 14.136719 1.523438 C 14.117188 1.535156 14.097656 1.542969 14.078125 1.539062 Z M 14.078125 1.539062 "/>
</g>
<mask id="mask1">
  <g filter="url(#alpha)">
<rect x="0" y="0" width="30" height="30" style="fill:rgb(0%,0%,0%);fill-opacity:0.301961;stroke:none;"/>
  </g>
</mask>
<clipPath id="clip2">
  <rect x="0" y="0" width="30" height="30"/>
</clipPath>
<g id="surface8" clip-path="url(#clip2)">
<path style=" stroke:none;fill-rule:evenodd;fill:rgb(91.37255%,68.235296%,5.490196%);fill-opacity:1;" d="M 14.195312 1.566406 C 14.234375 1.5625 14.273438 1.566406 14.3125 1.582031 C 14.183594 1.589844 14.058594 1.601562 13.929688 1.609375 C 13.96875 1.625 14.007812 1.628906 14.046875 1.625 C 13.703125 1.652344 13.359375 1.691406 13.007812 1.742188 C 12.972656 1.738281 12.941406 1.734375 12.90625 1.726562 C 12.953125 1.71875 13.003906 1.707031 13.050781 1.699219 C 13.023438 1.683594 12.996094 1.679688 12.964844 1.683594 C 13.367188 1.609375 13.777344 1.570312 14.195312 1.566406 Z M 14.195312 1.566406 "/>
</g>
<mask id="mask2">
  <g filter="url(#alpha)">
<rect x="0" y="0" width="30" height="30" style="fill:rgb(0%,0%,0%);fill-opacity:0.0313725;stroke:none;"/>
  </g>
</mask>
<clipPath id="clip3">
  <rect x="0" y="0" width="30" height="30"/>
</clipPath>
<g id="surface11" clip-path="url(#clip3)">
<path style=" stroke:none;fill-rule:evenodd;fill:rgb(94.509804%,70.980394%,4.705882%);fill-opacity:1;" d="M 12.554688 1.742188 C 12.65625 1.757812 12.761719 1.761719 12.875 1.757812 C 12.058594 1.890625 11.265625 2.101562 10.488281 2.386719 C 10.464844 2.386719 10.453125 2.375 10.445312 2.359375 C 10.445312 2.328125 10.457031 2.308594 10.488281 2.300781 C 11.164062 2.0625 11.851562 1.875 12.554688 1.742188 Z M 12.554688 1.742188 "/>
</g>
<mask id="mask3">
  <g filter="url(#alpha)">
<rect x="0" y="0" width="30" height="30" style="fill:rgb(0%,0%,0%);fill-opacity:0.00784314;stroke:none;"/>
  </g>
</mask>
<clipPath id="clip4">
  <rect x="0" y="0" width="30" height="30"/>
</clipPath>
<g id="surface14" clip-path="url(#clip4)">
<path style=" stroke:none;fill-rule:evenodd;fill:rgb(94.901961%,72.156864%,6.666667%);fill-opacity:1;" d="M 10.269531 2.386719 C 10.25 2.347656 10.25 2.347656 10.269531 2.386719 Z M 10.269531 2.386719 "/>
</g>
<mask id="mask4">
  <g filter="url(#alpha)">
<rect x="0" y="0" width="30" height="30" style="fill:rgb(0%,0%,0%);fill-opacity:0.054902;stroke:none;"/>
  </g>
</mask>
<clipPath id="clip5">
  <rect x="0" y="0" width="30" height="30"/>
</clipPath>
<g id="surface17" clip-path="url(#clip5)">
<path style=" stroke:none;fill-rule:evenodd;fill:rgb(93.333334%,70.588237%,5.490196%);fill-opacity:1;" d="M 16.507812 1.625 C 16.902344 1.664062 17.285156 1.730469 17.664062 1.832031 C 17.6875 1.8125 17.703125 1.792969 17.726562 1.773438 C 17.75 1.816406 17.78125 1.851562 17.828125 1.875 C 18.304688 1.964844 18.769531 2.097656 19.21875 2.269531 C 19.226562 2.25 19.238281 2.230469 19.25 2.210938 C 19.292969 2.265625 19.347656 2.308594 19.410156 2.34375 C 20.007812 2.535156 20.558594 2.78125 21.0625 3.089844 C 21.074219 3.070312 21.085938 3.050781 21.09375 3.03125 C 21.113281 3.113281 21.15625 3.132812 21.226562 3.089844 C 21.285156 3.167969 21.351562 3.238281 21.429688 3.296875 C 21.65625 3.398438 21.871094 3.523438 22.074219 3.664062 C 23.640625 4.75 24.933594 6.09375 25.957031 7.691406 C 26.847656 9.171875 27.4375 10.761719 27.730469 12.464844 C 27.707031 12.453125 27.695312 12.433594 27.6875 12.40625 C 27.679688 12.425781 27.675781 12.445312 27.671875 12.464844 C 27.714844 12.621094 27.730469 12.777344 27.714844 12.933594 C 27.476562 11.113281 26.890625 9.414062 25.957031 7.835938 C 23.523438 4.003906 20.023438 1.929688 15.453125 1.609375 C 15.769531 1.59375 16.082031 1.609375 16.390625 1.65625 C 16.4375 1.65625 16.476562 1.644531 16.507812 1.625 Z M 16.507812 1.625 "/>
</g>
<mask id="mask5">
  <g filter="url(#alpha)">
<rect x="0" y="0" width="30" height="30" style="fill:rgb(0%,0%,0%);fill-opacity:0.188235;stroke:none;"/>
  </g>
</mask>
<clipPath id="clip6">
  <rect x="0" y="0" width="30" height="30"/>
</clipPath>
<g id="surface20" clip-path="url(#clip6)">
<path style=" stroke:none;fill-rule:evenodd;fill:rgb(93.725491%,71.764708%,5.490196%);fill-opacity:1;" d="M 10.269531 2.386719 C 10.308594 2.386719 10.347656 2.386719 10.386719 2.386719 C 9.816406 2.640625 9.242188 2.921875 8.65625 3.222656 C 5.402344 5.140625 3.320312 7.9375 2.402344 11.617188 C 2.394531 11.589844 2.378906 11.570312 2.359375 11.558594 C 2.636719 10.355469 3.070312 9.210938 3.664062 8.128906 C 4.054688 7.472656 4.484375 6.835938 4.953125 6.226562 C 5.183594 5.964844 5.410156 5.726562 5.640625 5.507812 C 6.929688 4.132812 8.472656 3.09375 10.269531 2.386719 Z M 10.269531 2.386719 "/>
</g>
<mask id="mask6">
  <g filter="url(#alpha)">
<rect x="0" y="0" width="30" height="30" style="fill:rgb(0%,0%,0%);fill-opacity:0.231373;stroke:none;"/>
  </g>
</mask>
<clipPath id="clip7">
  <rect x="0" y="0" width="30" height="30"/>
</clipPath>
<g id="surface23" clip-path="url(#clip7)">
<path style=" stroke:none;fill-rule:evenodd;fill:rgb(90.980393%,67.843139%,6.27451%);fill-opacity:1;" d="M 2.359375 11.644531 C 2.375 11.65625 2.386719 11.675781 2.386719 11.703125 C 2.378906 11.777344 2.367188 11.777344 2.34375 11.703125 C 2.335938 11.757812 2.339844 11.8125 2.359375 11.867188 C 2.277344 12.242188 2.210938 12.621094 2.152344 12.992188 C 2.101562 13.144531 2.074219 13.339844 2.066406 13.578125 C 2.066406 13.644531 2.074219 13.703125 2.09375 13.753906 C 2.101562 13.792969 2.09375 13.820312 2.066406 13.84375 C 1.984375 14.605469 1.996094 15.386719 2.09375 16.1875 C 2.09375 16.230469 2.085938 16.269531 2.066406 16.304688 C 1.902344 14.746094 1.984375 13.203125 2.3125 11.675781 C 2.324219 11.660156 2.339844 11.648438 2.359375 11.644531 Z M 2.359375 11.644531 "/>
</g>
<mask id="mask7">
  <g filter="url(#alpha)">
<rect x="0" y="0" width="30" height="30" style="fill:rgb(0%,0%,0%);fill-opacity:0.996078;stroke:none;"/>
  </g>
</mask>
<clipPath id="clip8">
  <rect x="0" y="0" width="30" height="30"/>
</clipPath>
<g id="surface26" clip-path="url(#clip8)">
<path style=" stroke:none;fill-rule:evenodd;fill:rgb(99.215686%,76.47059%,3.137255%);fill-opacity:1;" d="M 27.730469 12.992188 C 27.820312 13.507812 27.867188 14.03125 27.875 14.5625 C 27.875 15.28125 27.820312 16 27.714844 16.714844 C 27.734375 16.363281 27.761719 16.011719 27.804688 15.660156 C 27.835938 14.769531 27.8125 13.878906 27.730469 12.992188 Z M 27.730469 12.992188 "/>
</g>
<mask id="mask8">
  <g filter="url(#alpha)">
<rect x="0" y="0" width="30" height="30" style="fill:rgb(0%,0%,0%);fill-opacity:0.0901961;stroke:none;"/>
  </g>
</mask>
<clipPath id="clip9">
  <rect x="0" y="0" width="30" height="30"/>
</clipPath>
<g id="surface29" clip-path="url(#clip9)">
<path style=" stroke:none;fill-rule:evenodd;fill:rgb(94.901961%,72.156864%,5.098039%);fill-opacity:1;" d="M 2.066406 13.84375 C 1.976562 15.605469 2.199219 17.324219 2.726562 19 C 2.675781 18.851562 2.621094 18.722656 2.5625 18.617188 C 2.3125 17.871094 2.148438 17.097656 2.066406 16.304688 C 2.085938 16.269531 2.09375 16.230469 2.09375 16.1875 C 1.996094 15.386719 1.984375 14.605469 2.066406 13.84375 Z M 2.066406 13.84375 "/>
</g>
<mask id="mask9">
  <g filter="url(#alpha)">
<rect x="0" y="0" width="30" height="30" style="fill:rgb(0%,0%,0%);fill-opacity:0.180392;stroke:none;"/>
  </g>
</mask>
<clipPath id="clip10">
  <rect x="0" y="0" width="30" height="30"/>
</clipPath>
<g id="surface32" clip-path="url(#clip10)">
<path style=" stroke:none;fill-rule:evenodd;fill:rgb(93.333334%,71.372551%,5.490196%);fill-opacity:1;" d="M 6.167969 24.332031 C 6.117188 24.308594 6.070312 24.28125 6.019531 24.257812 C 4.535156 22.824219 3.441406 21.128906 2.738281 19.175781 C 2.75 19.132812 2.757812 19.082031 2.753906 19.027344 C 3.367188 20.769531 4.296875 22.3125 5.539062 23.65625 C 5.773438 23.878906 5.984375 24.101562 6.167969 24.332031 Z M 6.167969 24.332031 "/>
</g>
<mask id="mask10">
  <g filter="url(#alpha)">
<rect x="0" y="0" width="30" height="30" style="fill:rgb(0%,0%,0%);fill-opacity:0.184314;stroke:none;"/>
  </g>
</mask>
<clipPath id="clip11">
  <rect x="0" y="0" width="30" height="30"/>
</clipPath>
<g id="surface35" clip-path="url(#clip11)">
<path style=" stroke:none;fill-rule:evenodd;fill:rgb(92.54902%,69.803923%,5.882353%);fill-opacity:1;" d="M 27.671875 17.269531 C 26.894531 20.933594 24.960938 23.792969 21.871094 25.839844 C 21.335938 26.160156 20.789062 26.460938 20.230469 26.75 C 19.835938 26.902344 19.4375 27.054688 19.042969 27.203125 C 18.5 27.375 17.949219 27.511719 17.386719 27.613281 C 17.367188 27.589844 17.335938 27.574219 17.300781 27.570312 C 18.554688 27.332031 19.746094 26.921875 20.875 26.335938 C 24.476562 24.335938 26.714844 21.3125 27.597656 17.269531 C 27.605469 17.289062 27.617188 17.308594 27.625 17.328125 C 27.636719 17.300781 27.648438 17.28125 27.671875 17.269531 Z M 27.671875 17.269531 "/>
</g>
<mask id="mask11">
  <g filter="url(#alpha)">
<rect x="0" y="0" width="30" height="30" style="fill:rgb(0%,0%,0%);fill-opacity:0.137255;stroke:none;"/>
  </g>
</mask>
<clipPath id="clip12">
  <rect x="0" y="0" width="30" height="30"/>
</clipPath>
<g id="surface38" clip-path="url(#clip12)">
<path style=" stroke:none;fill-rule:evenodd;fill:rgb(92.54902%,69.01961%,4.313726%);fill-opacity:1;" d="M 11.5 27.320312 C 11.410156 27.3125 11.320312 27.292969 11.234375 27.261719 C 11.207031 27.261719 11.1875 27.273438 11.175781 27.289062 C 10.367188 27.035156 9.585938 26.707031 8.832031 26.308594 C 7.957031 25.820312 7.148438 25.246094 6.402344 24.59375 C 6.414062 24.597656 6.425781 24.589844 6.429688 24.578125 C 6.371094 24.523438 6.3125 24.460938 6.253906 24.40625 C 6.273438 24.382812 6.292969 24.382812 6.3125 24.40625 C 7.8125 25.769531 9.542969 26.742188 11.5 27.320312 Z M 11.5 27.320312 "/>
</g>
<mask id="mask12">
  <g filter="url(#alpha)">
<rect x="0" y="0" width="30" height="30" style="fill:rgb(0%,0%,0%);fill-opacity:0.709804;stroke:none;"/>
  </g>
</mask>
<clipPath id="clip13">
  <rect x="0" y="0" width="30" height="30"/>
</clipPath>
<g id="surface41" clip-path="url(#clip13)">
<path style=" stroke:none;fill-rule:evenodd;fill:rgb(99.215686%,78.039217%,3.529412%);fill-opacity:1;" d="M 11.5 27.320312 C 11.734375 27.363281 11.96875 27.417969 12.203125 27.480469 C 11.957031 27.464844 11.722656 27.410156 11.5 27.320312 Z M 11.5 27.320312 "/>
</g>
<mask id="mask13">
  <g filter="url(#alpha)">
<rect x="0" y="0" width="30" height="30" style="fill:rgb(0%,0%,0%);fill-opacity:0.854902;stroke:none;"/>
  </g>
</mask>
<clipPath id="clip14">
  <rect x="0" y="0" width="30" height="30"/>
</clipPath>
<g id="surface44" clip-path="url(#clip14)">
<path style=" stroke:none;fill-rule:evenodd;fill:rgb(99.215686%,77.64706%,3.921569%);fill-opacity:1;" d="M 15.367188 27.789062 C 15.402344 27.78125 15.433594 27.789062 15.453125 27.816406 C 14.640625 27.832031 13.828125 27.777344 13.023438 27.65625 C 13.800781 27.738281 14.582031 27.78125 15.367188 27.789062 Z M 15.367188 27.789062 "/>
</g>
<mask id="mask14">
  <g filter="url(#alpha)">
<rect x="0" y="0" width="30" height="30" style="fill:rgb(0%,0%,0%);fill-opacity:0.188235;stroke:none;"/>
  </g>
</mask>
<clipPath id="clip15">
  <rect x="0" y="0" width="30" height="30"/>
</clipPath>
<g id="surface47" clip-path="url(#clip15)">
<path style=" stroke:none;fill-rule:evenodd;fill:rgb(92.54902%,67.450982%,4.705882%);fill-opacity:1;" d="M 17.242188 27.640625 C 16.828125 27.734375 16.410156 27.792969 15.980469 27.816406 C 15.808594 27.785156 15.632812 27.785156 15.453125 27.816406 C 15.433594 27.789062 15.402344 27.78125 15.367188 27.789062 C 15.964844 27.753906 16.566406 27.6875 17.167969 27.582031 C 17.191406 27.589844 17.21875 27.59375 17.242188 27.597656 C 17.125 27.621094 17.125 27.636719 17.242188 27.640625 Z M 17.242188 27.640625 "/>
</g>
</defs>
<g id="surface1">
<use xlink:href="#surface5" mask="url(#mask0)"/>
<use xlink:href="#surface8" mask="url(#mask1)"/>
<path style=" stroke:none;fill-rule:evenodd;fill:rgb(98.039216%,76.078433%,4.313726%);fill-opacity:1;" d="M 14.195312 1.566406 C 14.296875 1.539062 14.402344 1.527344 14.515625 1.539062 C 14.804688 1.5625 15.097656 1.578125 15.394531 1.582031 C 14.945312 1.597656 14.496094 1.613281 14.046875 1.625 C 14.007812 1.628906 13.96875 1.625 13.929688 1.609375 C 14.058594 1.601562 14.183594 1.589844 14.3125 1.582031 C 14.273438 1.566406 14.234375 1.5625 14.195312 1.566406 Z M 14.195312 1.566406 "/>
<path style=" stroke:none;fill-rule:evenodd;fill:rgb(88.235295%,60.392159%,5.490196%);fill-opacity:1;" d="M 14.515625 1.539062 C 15.183594 1.523438 15.847656 1.550781 16.507812 1.625 C 16.476562 1.644531 16.4375 1.65625 16.390625 1.65625 C 16.082031 1.609375 15.769531 1.59375 15.453125 1.609375 C 20.023438 1.929688 23.523438 4.003906 25.957031 7.835938 C 26.890625 9.414062 27.476562 11.113281 27.714844 12.933594 C 27.730469 12.777344 27.714844 12.621094 27.671875 12.464844 C 27.675781 12.445312 27.679688 12.425781 27.6875 12.40625 C 27.695312 12.433594 27.707031 12.453125 27.730469 12.464844 C 27.980469 14.070312 27.960938 15.671875 27.671875 17.269531 C 27.648438 17.28125 27.636719 17.300781 27.625 17.328125 C 27.617188 17.308594 27.605469 17.289062 27.597656 17.269531 C 26.714844 21.3125 24.476562 24.335938 20.875 26.335938 C 19.746094 26.921875 18.554688 27.332031 17.300781 27.570312 C 17.335938 27.574219 17.367188 27.589844 17.386719 27.613281 C 17.335938 27.609375 17.285156 27.617188 17.242188 27.640625 C 17.125 27.636719 17.125 27.621094 17.242188 27.597656 C 17.21875 27.59375 17.191406 27.589844 17.167969 27.582031 C 16.566406 27.6875 15.964844 27.753906 15.367188 27.789062 C 14.582031 27.78125 13.800781 27.738281 13.023438 27.65625 C 13.828125 27.777344 14.640625 27.832031 15.453125 27.816406 C 15.632812 27.785156 15.808594 27.785156 15.980469 27.816406 C 14.34375 27.941406 12.742188 27.765625 11.175781 27.289062 C 11.1875 27.273438 11.207031 27.261719 11.234375 27.261719 C 11.320312 27.292969 11.410156 27.3125 11.5 27.320312 C 9.542969 26.742188 7.8125 25.769531 6.3125 24.40625 C 6.292969 24.382812 6.273438 24.382812 6.253906 24.40625 C 6.3125 24.460938 6.371094 24.523438 6.429688 24.578125 C 6.425781 24.589844 6.414062 24.597656 6.402344 24.59375 C 6.300781 24.523438 6.222656 24.4375 6.167969 24.332031 C 5.984375 24.101562 5.773438 23.878906 5.539062 23.65625 C 4.296875 22.3125 3.367188 20.769531 2.753906 19.027344 C 2.757812 19.082031 2.75 19.132812 2.738281 19.175781 C 2.65625 18.996094 2.597656 18.8125 2.5625 18.617188 C 2.621094 18.722656 2.675781 18.851562 2.726562 19 C 2.199219 17.324219 1.976562 15.605469 2.066406 13.84375 C 2.09375 13.820312 2.101562 13.792969 2.09375 13.753906 C 2.105469 13.5 2.125 13.246094 2.152344 12.992188 C 2.210938 12.621094 2.277344 12.242188 2.359375 11.867188 C 2.339844 11.8125 2.335938 11.757812 2.34375 11.703125 C 2.367188 11.777344 2.378906 11.777344 2.386719 11.703125 C 2.386719 11.675781 2.375 11.65625 2.359375 11.644531 C 2.359375 11.617188 2.359375 11.585938 2.359375 11.558594 C 2.378906 11.570312 2.394531 11.589844 2.402344 11.617188 C 3.320312 7.9375 5.402344 5.140625 8.65625 3.222656 C 9.242188 2.921875 9.816406 2.640625 10.386719 2.386719 C 10.394531 2.363281 10.414062 2.351562 10.445312 2.359375 C 10.453125 2.375 10.464844 2.386719 10.488281 2.386719 C 11.265625 2.101562 12.058594 1.890625 12.875 1.757812 C 12.761719 1.761719 12.65625 1.757812 12.554688 1.742188 C 12.6875 1.710938 12.824219 1.691406 12.964844 1.683594 C 12.996094 1.679688 13.023438 1.683594 13.050781 1.699219 C 13.003906 1.707031 12.953125 1.71875 12.90625 1.726562 C 12.941406 1.734375 12.972656 1.738281 13.007812 1.742188 C 13.359375 1.691406 13.703125 1.652344 14.046875 1.625 C 14.496094 1.613281 14.945312 1.597656 15.394531 1.582031 C 15.097656 1.578125 14.804688 1.5625 14.515625 1.539062 Z M 14.515625 1.539062 "/>
<use xlink:href="#surface11" mask="url(#mask2)"/>
<use xlink:href="#surface14" mask="url(#mask3)"/>
<path style=" stroke:none;fill-rule:evenodd;fill:rgb(99.607843%,84.313726%,41.960785%);fill-opacity:1;" d="M 16.539062 26.703125 C 16.296875 26.371094 16.027344 26.058594 15.734375 25.765625 C 15.71875 25.542969 15.714844 25.316406 15.71875 25.09375 C 15.730469 24.8125 15.777344 24.539062 15.863281 24.273438 C 16.035156 23.804688 16.273438 23.375 16.582031 22.984375 C 16.636719 22.867188 16.683594 22.75 16.726562 22.632812 C 16.804688 22.164062 16.863281 21.695312 16.90625 21.226562 C 16.957031 20.878906 17.109375 20.578125 17.359375 20.332031 C 17.40625 20.304688 17.457031 20.273438 17.503906 20.242188 C 17.789062 20.148438 18.070312 20.0625 18.355469 19.996094 C 18.847656 19.933594 19.257812 19.71875 19.585938 19.351562 C 19.695312 19.195312 19.769531 19.019531 19.804688 18.824219 C 19.808594 18.472656 19.800781 18.121094 19.789062 17.769531 C 19.847656 17.578125 19.933594 17.402344 20.054688 17.242188 C 20.160156 17.085938 20.171875 16.917969 20.082031 16.742188 C 20.167969 16.601562 20.261719 16.464844 20.359375 16.332031 C 20.394531 16.277344 20.410156 16.21875 20.40625 16.15625 C 20.363281 15.769531 20.296875 15.386719 20.199219 15.015625 C 20.355469 14.898438 20.5 14.773438 20.640625 14.632812 C 20.800781 14.449219 20.828125 14.242188 20.710938 14.019531 C 20.429688 13.535156 20.140625 13.058594 19.847656 12.582031 C 20.164062 12.269531 20.386719 11.898438 20.507812 11.46875 C 20.527344 11.300781 20.523438 11.136719 20.492188 10.972656 C 20.464844 10.859375 20.421875 10.75 20.359375 10.648438 C 20.179688 10.40625 20.015625 10.152344 19.863281 9.886719 C 19.773438 9.410156 19.65625 8.941406 19.511719 8.480469 C 19.449219 8.3125 19.355469 8.167969 19.234375 8.042969 C 19.820312 7.285156 19.882812 6.484375 19.421875 5.640625 C 19.25 5.382812 19.050781 5.148438 18.824219 4.9375 C 18.753906 4.84375 18.671875 4.765625 18.574219 4.703125 C 18.605469 4.796875 18.628906 4.894531 18.648438 4.996094 C 18.679688 5.238281 18.617188 5.453125 18.457031 5.640625 C 18.207031 5.039062 17.78125 4.613281 17.183594 4.367188 C 17.140625 4.34375 17.101562 4.347656 17.066406 4.378906 C 17.148438 4.546875 17.175781 4.722656 17.140625 4.90625 C 17.066406 5.019531 16.960938 5.0625 16.832031 5.039062 C 16.585938 4.695312 16.261719 4.460938 15.863281 4.335938 C 15.8125 4.3125 15.765625 4.316406 15.71875 4.351562 C 15.589844 4.566406 15.402344 4.664062 15.148438 4.644531 C 14.78125 4.605469 14.425781 4.535156 14.078125 4.4375 C 14.097656 4.441406 14.117188 4.4375 14.136719 4.421875 C 13.625 4.320312 13.117188 4.332031 12.613281 4.453125 C 12.007812 4.601562 11.449219 4.820312 10.941406 5.113281 C 8.992188 6.011719 7.917969 7.535156 7.71875 9.683594 C 7.675781 9.894531 7.65625 10.148438 7.660156 10.445312 C 7.65625 10.640625 7.667969 10.777344 7.691406 10.855469 C 7.71875 10.945312 7.730469 11.042969 7.71875 11.148438 C 7.851562 12.316406 8.175781 13.429688 8.6875 14.488281 C 8.65625 14.507812 8.648438 14.539062 8.671875 14.574219 C 8.898438 15.019531 9.109375 15.449219 9.300781 15.863281 C 9.6875 16.683594 9.757812 17.535156 9.507812 18.414062 C 9.226562 19.25 8.863281 20.050781 8.421875 20.816406 C 8.320312 20.804688 8.222656 20.820312 8.128906 20.859375 C 7.417969 21.488281 6.695312 22.097656 5.960938 22.691406 C 4.382812 20.890625 3.429688 18.789062 3.105469 16.390625 C 2.703125 13.214844 3.398438 10.304688 5.1875 7.660156 C 7.800781 4.144531 11.3125 2.460938 15.71875 2.609375 C 19.894531 2.984375 23.0625 4.949219 25.226562 8.511719 C 27.09375 11.820312 27.417969 15.277344 26.191406 18.882812 C 24.980469 22.085938 22.816406 24.40625 19.703125 25.839844 C 18.683594 26.265625 17.628906 26.554688 16.539062 26.703125 Z M 16.539062 26.703125 "/>
<path style=" stroke:none;fill-rule:evenodd;fill:rgb(63.921571%,36.862746%,0%);fill-opacity:1;" d="M 18.648438 4.996094 C 18.671875 5.046875 18.6875 5.105469 18.691406 5.171875 C 18.699219 5.0625 18.699219 4.957031 18.691406 4.847656 C 18.722656 4.898438 18.769531 4.925781 18.824219 4.9375 C 19.050781 5.148438 19.25 5.382812 19.421875 5.640625 C 19.882812 6.484375 19.820312 7.285156 19.234375 8.042969 C 19.09375 7.910156 18.9375 7.796875 18.765625 7.703125 C 17.847656 7.449219 16.917969 7.300781 15.96875 7.25 C 15.457031 7.246094 14.972656 7.359375 14.515625 7.585938 C 14.503906 7.601562 14.492188 7.613281 14.488281 7.632812 C 14.828125 8.242188 15.160156 8.859375 15.484375 9.476562 C 15.449219 9.519531 15.410156 9.550781 15.367188 9.578125 C 15 9.769531 14.640625 9.964844 14.28125 10.164062 C 13.964844 10.433594 13.753906 10.769531 13.652344 11.175781 C 13.542969 11.753906 13.425781 12.332031 13.300781 12.90625 C 13.195312 13.230469 13.058594 13.542969 12.890625 13.84375 C 12.777344 13.042969 12.390625 12.414062 11.734375 11.953125 C 11.453125 11.75 11.152344 11.582031 10.824219 11.453125 C 10.144531 11.199219 9.648438 11.398438 9.34375 12.054688 C 9.257812 13.21875 9.710938 14.101562 10.707031 14.707031 C 11.007812 14.851562 11.308594 14.988281 11.617188 15.117188 C 11.742188 15.136719 11.871094 15.136719 11.996094 15.117188 C 12.105469 15.066406 12.167969 14.984375 12.1875 14.867188 C 12.296875 15.472656 12.445312 16.070312 12.625 16.65625 C 12.828125 17.101562 13.15625 17.417969 13.609375 17.609375 C 14.753906 18.097656 15.898438 18.597656 17.035156 19.101562 C 17.742188 19.398438 18.472656 19.511719 19.234375 19.4375 C 19.296875 19.464844 19.367188 19.472656 19.4375 19.453125 C 19.335938 19.523438 19.238281 19.601562 19.144531 19.6875 C 18.886719 19.8125 18.621094 19.914062 18.355469 19.996094 C 18.070312 20.0625 17.789062 20.148438 17.503906 20.242188 C 17.457031 20.273438 17.40625 20.304688 17.359375 20.332031 C 17.109375 20.578125 16.957031 20.878906 16.90625 21.226562 C 16.863281 21.695312 16.804688 22.164062 16.726562 22.632812 C 16.683594 22.75 16.636719 22.867188 16.582031 22.984375 C 16.273438 23.375 16.035156 23.804688 15.863281 24.273438 C 15.753906 24.511719 15.691406 24.765625 15.671875 25.035156 C 15.652344 25.257812 15.652344 25.484375 15.671875 25.707031 C 15.679688 25.496094 15.695312 25.292969 15.71875 25.09375 C 15.714844 25.316406 15.71875 25.542969 15.734375 25.765625 C 16.027344 26.058594 16.296875 26.371094 16.539062 26.703125 C 12.910156 27.128906 9.726562 26.144531 6.988281 23.757812 C 6.628906 23.417969 6.285156 23.058594 5.960938 22.691406 C 6.695312 22.097656 7.417969 21.488281 8.128906 20.859375 C 8.222656 20.820312 8.320312 20.804688 8.421875 20.816406 C 8.855469 21.066406 9.265625 21.355469 9.652344 21.679688 C 10.777344 22.714844 11.890625 23.757812 12.992188 24.8125 C 13.53125 25.207031 14.121094 25.496094 14.765625 25.679688 C 14.773438 25.023438 14.734375 24.367188 14.648438 23.714844 C 14.433594 22.644531 14.191406 21.582031 13.914062 20.523438 C 13.804688 20.082031 13.628906 19.671875 13.390625 19.292969 C 13.09375 18.960938 12.78125 18.648438 12.453125 18.355469 C 12.164062 18.007812 12 17.605469 11.953125 17.152344 C 11.894531 16.851562 11.851562 16.550781 11.820312 16.246094 C 11.257812 16.085938 10.8125 15.765625 10.488281 15.277344 C 10.332031 16.382812 10.007812 17.425781 9.507812 18.414062 C 9.757812 17.535156 9.6875 16.683594 9.300781 15.863281 C 9.246094 15.695312 9.183594 15.53125 9.109375 15.367188 C 8.960938 15.078125 8.820312 14.78125 8.6875 14.488281 C 8.175781 13.429688 7.851562 12.316406 7.71875 11.148438 C 7.757812 10.71875 7.757812 10.289062 7.71875 9.859375 C 7.71875 9.800781 7.71875 9.742188 7.71875 9.683594 C 7.917969 7.535156 8.992188 6.011719 10.941406 5.113281 C 11.492188 4.835938 12.070312 4.628906 12.671875 4.484375 C 13.136719 4.402344 13.605469 4.386719 14.078125 4.4375 C 14.425781 4.535156 14.78125 4.605469 15.148438 4.644531 C 15.402344 4.664062 15.589844 4.566406 15.71875 4.351562 C 15.765625 4.316406 15.8125 4.3125 15.863281 4.335938 C 16.261719 4.460938 16.585938 4.695312 16.832031 5.039062 C 16.960938 5.0625 17.066406 5.019531 17.140625 4.90625 C 17.175781 4.722656 17.148438 4.546875 17.066406 4.378906 C 17.101562 4.347656 17.140625 4.34375 17.183594 4.367188 C 17.78125 4.613281 18.207031 5.039062 18.457031 5.640625 C 18.617188 5.453125 18.679688 5.238281 18.648438 4.996094 Z M 18.648438 4.996094 "/>
<path style=" stroke:none;fill-rule:evenodd;fill:rgb(97.647059%,90.980393%,49.803922%);fill-opacity:1;" d="M 14.078125 4.4375 C 13.605469 4.386719 13.136719 4.402344 12.671875 4.484375 C 12.070312 4.628906 11.492188 4.835938 10.941406 5.113281 C 11.449219 4.820312 12.007812 4.601562 12.613281 4.453125 C 13.117188 4.332031 13.625 4.320312 14.136719 4.421875 C 14.117188 4.4375 14.097656 4.441406 14.078125 4.4375 Z M 14.078125 4.4375 "/>
<path style=" stroke:none;fill-rule:evenodd;fill:rgb(56.470591%,25.882354%,0.784314%);fill-opacity:1;" d="M 18.824219 4.9375 C 18.769531 4.925781 18.722656 4.898438 18.691406 4.847656 C 18.699219 4.957031 18.699219 5.0625 18.691406 5.171875 C 18.6875 5.105469 18.671875 5.046875 18.648438 4.996094 C 18.628906 4.894531 18.605469 4.796875 18.574219 4.703125 C 18.671875 4.765625 18.753906 4.84375 18.824219 4.9375 Z M 18.824219 4.9375 "/>
<use xlink:href="#surface17" mask="url(#mask4)"/>
<use xlink:href="#surface20" mask="url(#mask5)"/>
<path style=" stroke:none;fill-rule:evenodd;fill:rgb(92.54902%,65.490198%,8.627451%);fill-opacity:1;" d="M 19.234375 8.042969 C 19.355469 8.167969 19.449219 8.3125 19.511719 8.480469 C 19.65625 8.941406 19.773438 9.410156 19.863281 9.886719 C 20.015625 10.152344 20.179688 10.40625 20.359375 10.648438 C 20.421875 10.75 20.464844 10.859375 20.492188 10.972656 C 20.195312 11.125 19.929688 11.320312 19.6875 11.558594 C 19.535156 11.738281 19.515625 11.933594 19.628906 12.144531 C 19.6875 12.300781 19.761719 12.449219 19.847656 12.582031 C 20.140625 13.058594 20.429688 13.535156 20.710938 14.019531 C 20.828125 14.242188 20.800781 14.449219 20.640625 14.632812 C 20.402344 14.605469 20.167969 14.5625 19.9375 14.5 C 19.535156 14.492188 19.132812 14.5 18.734375 14.53125 C 18.65625 14.464844 18.65625 14.394531 18.734375 14.328125 C 18.539062 14.394531 18.464844 14.535156 18.515625 14.75 C 18.558594 14.863281 18.632812 14.945312 18.734375 15 C 18.929688 14.992188 19.125 14.992188 19.320312 15 C 19.613281 15.074219 19.90625 15.136719 20.199219 15.191406 C 20.199219 15.132812 20.199219 15.074219 20.199219 15.015625 C 20.296875 15.386719 20.363281 15.769531 20.40625 16.15625 C 20.371094 16.117188 20.332031 16.085938 20.289062 16.054688 C 20.023438 16.027344 19.761719 16.019531 19.496094 16.023438 C 19.046875 16.210938 18.617188 16.4375 18.207031 16.699219 C 18.316406 16.71875 18.421875 16.71875 18.53125 16.699219 C 18.835938 16.625 19.144531 16.558594 19.453125 16.507812 C 19.617188 16.519531 19.78125 16.550781 19.9375 16.609375 C 20 16.640625 20.046875 16.6875 20.082031 16.742188 C 20.171875 16.917969 20.160156 17.085938 20.054688 17.242188 C 19.597656 17.222656 19.148438 17.15625 18.707031 17.035156 C 18.699219 17.320312 18.804688 17.550781 19.027344 17.726562 C 19.273438 17.773438 19.515625 17.816406 19.761719 17.855469 C 19.753906 17.820312 19.761719 17.789062 19.789062 17.769531 C 19.800781 18.121094 19.808594 18.472656 19.804688 18.824219 C 19.769531 19.019531 19.695312 19.195312 19.585938 19.351562 C 19.46875 19.378906 19.351562 19.410156 19.234375 19.4375 C 18.472656 19.511719 17.742188 19.398438 17.035156 19.101562 C 15.898438 18.597656 14.753906 18.097656 13.609375 17.609375 C 13.15625 17.417969 12.828125 17.101562 12.625 16.65625 C 12.445312 16.070312 12.296875 15.472656 12.1875 14.867188 C 12.167969 14.984375 12.105469 15.066406 11.996094 15.117188 C 11.871094 15.136719 11.742188 15.136719 11.617188 15.117188 C 11.308594 14.988281 11.007812 14.851562 10.707031 14.707031 C 9.710938 14.101562 9.257812 13.21875 9.34375 12.054688 C 9.648438 11.398438 10.144531 11.199219 10.824219 11.453125 C 11.152344 11.582031 11.453125 11.75 11.734375 11.953125 C 12.390625 12.414062 12.777344 13.042969 12.890625 13.84375 C 13.058594 13.542969 13.195312 13.230469 13.300781 12.90625 C 13.425781 12.332031 13.542969 11.753906 13.652344 11.175781 C 13.753906 10.769531 13.964844 10.433594 14.28125 10.164062 C 14.640625 9.964844 15 9.769531 15.367188 9.578125 C 15.410156 9.550781 15.449219 9.519531 15.484375 9.476562 C 15.160156 8.859375 14.828125 8.242188 14.488281 7.632812 C 14.492188 7.613281 14.503906 7.601562 14.515625 7.585938 C 14.972656 7.359375 15.457031 7.246094 15.96875 7.25 C 16.917969 7.300781 17.847656 7.449219 18.765625 7.703125 C 18.9375 7.796875 19.09375 7.910156 19.234375 8.042969 Z M 19.234375 8.042969 "/>
<path style=" stroke:none;fill-rule:evenodd;fill:rgb(63.529414%,36.470589%,0%);fill-opacity:1;" d="M 17.152344 10.269531 C 17.824219 10.246094 18.4375 10.417969 19 10.78125 C 19.273438 11.039062 19.308594 11.324219 19.101562 11.644531 C 18.894531 11.792969 18.703125 11.964844 18.53125 12.15625 C 18.390625 12.25 18.25 12.253906 18.105469 12.171875 C 18.023438 12.269531 17.921875 12.332031 17.796875 12.363281 C 17.242188 12.410156 16.726562 12.292969 16.246094 12.011719 C 16.65625 11.519531 17.171875 11.195312 17.796875 11.046875 C 17.34375 10.804688 16.863281 10.746094 16.363281 10.867188 C 16.175781 10.921875 16 10.992188 15.835938 11.074219 C 16.203125 10.683594 16.644531 10.417969 17.152344 10.269531 Z M 17.152344 10.269531 "/>
<path style=" stroke:none;fill-rule:evenodd;fill:rgb(59.607846%,30.19608%,2.352941%);fill-opacity:1;" d="M 7.71875 9.859375 C 7.757812 10.289062 7.757812 10.71875 7.71875 11.148438 C 7.730469 11.042969 7.71875 10.945312 7.691406 10.855469 C 7.6875 10.523438 7.695312 10.191406 7.71875 9.859375 Z M 7.71875 9.859375 "/>
<path style=" stroke:none;fill-rule:evenodd;fill:rgb(99.607843%,96.470588%,54.901963%);fill-opacity:1;" d="M 7.71875 9.683594 C 7.71875 9.742188 7.71875 9.800781 7.71875 9.859375 C 7.695312 10.191406 7.6875 10.523438 7.691406 10.855469 C 7.667969 10.777344 7.65625 10.640625 7.660156 10.445312 C 7.65625 10.148438 7.675781 9.894531 7.71875 9.683594 Z M 7.71875 9.683594 "/>
<path style=" stroke:none;fill-rule:evenodd;fill:rgb(63.137257%,35.686275%,0%);fill-opacity:1;" d="M 20.492188 10.972656 C 20.523438 11.136719 20.527344 11.300781 20.507812 11.46875 C 20.386719 11.898438 20.164062 12.269531 19.847656 12.582031 C 19.761719 12.449219 19.6875 12.300781 19.628906 12.144531 C 19.515625 11.933594 19.535156 11.738281 19.6875 11.558594 C 19.929688 11.320312 20.195312 11.125 20.492188 10.972656 Z M 20.492188 10.972656 "/>
<path style=" stroke:none;fill-rule:evenodd;fill:rgb(63.529414%,36.078432%,0%);fill-opacity:1;" d="M 10.003906 11.761719 C 10.5 11.757812 10.886719 11.960938 11.164062 12.378906 C 11.265625 12.535156 11.335938 12.707031 11.382812 12.890625 C 11.339844 12.980469 11.289062 13.0625 11.21875 13.140625 C 11.199219 13.234375 11.21875 13.324219 11.28125 13.402344 C 11.441406 13.53125 11.597656 13.667969 11.75 13.8125 C 11.84375 13.949219 11.839844 14.074219 11.734375 14.195312 C 11.6875 14.222656 11.636719 14.226562 11.585938 14.210938 C 11.5 14.109375 11.402344 14.023438 11.292969 13.945312 C 11.117188 13.867188 10.929688 13.820312 10.738281 13.796875 C 10.648438 13.769531 10.574219 13.714844 10.515625 13.636719 C 10.441406 13.375 10.425781 13.105469 10.472656 12.832031 C 10.371094 12.546875 10.183594 12.476562 9.917969 12.625 C 9.882812 12.679688 9.847656 12.734375 9.8125 12.789062 C 9.804688 12.914062 9.792969 13.042969 9.785156 13.167969 C 9.605469 12.882812 9.546875 12.570312 9.609375 12.230469 C 9.664062 12.003906 9.796875 11.847656 10.003906 11.761719 Z M 10.003906 11.761719 "/>
<use xlink:href="#surface23" mask="url(#mask6)"/>
<path style=" stroke:none;fill-rule:evenodd;fill:rgb(99.215686%,78.431374%,4.705882%);fill-opacity:1;" d="M 2.152344 12.992188 C 2.125 13.246094 2.105469 13.5 2.09375 13.753906 C 2.074219 13.703125 2.066406 13.644531 2.066406 13.578125 C 2.074219 13.339844 2.101562 13.144531 2.152344 12.992188 Z M 2.152344 12.992188 "/>
<path style=" stroke:none;fill-rule:evenodd;fill:rgb(63.137257%,35.686275%,0%);fill-opacity:1;" d="M 20.640625 14.632812 C 20.5 14.773438 20.355469 14.898438 20.199219 15.015625 C 20.199219 15.074219 20.199219 15.132812 20.199219 15.191406 C 19.90625 15.136719 19.613281 15.074219 19.320312 15 C 19.125 14.992188 18.929688 14.992188 18.734375 15 C 18.632812 14.945312 18.558594 14.863281 18.515625 14.75 C 18.464844 14.535156 18.539062 14.394531 18.734375 14.328125 C 18.65625 14.394531 18.65625 14.464844 18.734375 14.53125 C 19.132812 14.5 19.535156 14.492188 19.9375 14.5 C 20.167969 14.5625 20.402344 14.605469 20.640625 14.632812 Z M 20.640625 14.632812 "/>
<path style=" stroke:none;fill-rule:evenodd;fill:rgb(98.039216%,91.37255%,49.803922%);fill-opacity:1;" d="M 8.6875 14.488281 C 8.820312 14.78125 8.960938 15.078125 9.109375 15.367188 C 9.183594 15.53125 9.246094 15.695312 9.300781 15.863281 C 9.109375 15.449219 8.898438 15.019531 8.671875 14.574219 C 8.648438 14.539062 8.65625 14.507812 8.6875 14.488281 Z M 8.6875 14.488281 "/>
<path style=" stroke:none;fill-rule:evenodd;fill:rgb(92.54902%,65.490198%,9.019608%);fill-opacity:1;" d="M 8.421875 20.816406 C 8.863281 20.050781 9.226562 19.25 9.507812 18.414062 C 10.007812 17.425781 10.332031 16.382812 10.488281 15.277344 C 10.8125 15.765625 11.257812 16.085938 11.820312 16.246094 C 11.851562 16.550781 11.894531 16.851562 11.953125 17.152344 C 12 17.605469 12.164062 18.007812 12.453125 18.355469 C 12.78125 18.648438 13.09375 18.960938 13.390625 19.292969 C 13.628906 19.671875 13.804688 20.082031 13.914062 20.523438 C 14.191406 21.582031 14.433594 22.644531 14.648438 23.714844 C 14.734375 24.367188 14.773438 25.023438 14.765625 25.679688 C 14.121094 25.496094 13.53125 25.207031 12.992188 24.8125 C 11.890625 23.757812 10.777344 22.714844 9.652344 21.679688 C 9.265625 21.355469 8.855469 21.066406 8.421875 20.816406 Z M 8.421875 20.816406 "/>
<use xlink:href="#surface26" mask="url(#mask7)"/>
<path style=" stroke:none;fill-rule:evenodd;fill:rgb(63.137257%,35.686275%,0%);fill-opacity:1;" d="M 20.40625 16.15625 C 20.410156 16.21875 20.394531 16.277344 20.359375 16.332031 C 20.261719 16.464844 20.167969 16.601562 20.082031 16.742188 C 20.046875 16.6875 20 16.640625 19.9375 16.609375 C 19.78125 16.550781 19.617188 16.519531 19.453125 16.507812 C 19.144531 16.558594 18.835938 16.625 18.53125 16.699219 C 18.421875 16.71875 18.316406 16.71875 18.207031 16.699219 C 18.617188 16.4375 19.046875 16.210938 19.496094 16.023438 C 19.761719 16.019531 20.023438 16.027344 20.289062 16.054688 C 20.332031 16.085938 20.371094 16.117188 20.40625 16.15625 Z M 20.40625 16.15625 "/>
<path style=" stroke:none;fill-rule:evenodd;fill:rgb(63.137257%,35.686275%,0%);fill-opacity:1;" d="M 20.054688 17.242188 C 19.933594 17.402344 19.847656 17.578125 19.789062 17.769531 C 19.761719 17.789062 19.753906 17.820312 19.761719 17.855469 C 19.515625 17.816406 19.273438 17.773438 19.027344 17.726562 C 18.804688 17.550781 18.699219 17.320312 18.707031 17.035156 C 19.148438 17.15625 19.597656 17.222656 20.054688 17.242188 Z M 20.054688 17.242188 "/>
<use xlink:href="#surface29" mask="url(#mask8)"/>
<path style=" stroke:none;fill-rule:evenodd;fill:rgb(57.647061%,28.235295%,1.176471%);fill-opacity:1;" d="M 19.585938 19.351562 C 19.257812 19.71875 18.847656 19.933594 18.355469 19.996094 C 18.621094 19.914062 18.886719 19.8125 19.144531 19.6875 C 19.238281 19.601562 19.335938 19.523438 19.4375 19.453125 C 19.367188 19.472656 19.296875 19.464844 19.234375 19.4375 C 19.351562 19.410156 19.46875 19.378906 19.585938 19.351562 Z M 19.585938 19.351562 "/>
<path style=" stroke:none;fill-rule:evenodd;fill:rgb(92.941177%,66.274512%,9.019608%);fill-opacity:1;" d="M 15.132812 21.253906 C 15.539062 21.625 15.988281 21.9375 16.480469 22.191406 C 16.371094 22.429688 16.21875 22.636719 16.023438 22.808594 C 15.574219 22.378906 15.277344 21.863281 15.132812 21.253906 Z M 15.132812 21.253906 "/>
<use xlink:href="#surface32" mask="url(#mask9)"/>
<use xlink:href="#surface35" mask="url(#mask10)"/>
<path style=" stroke:none;fill-rule:evenodd;fill:rgb(53.725493%,23.921569%,0%);fill-opacity:1;" d="M 15.863281 24.273438 C 15.777344 24.539062 15.730469 24.8125 15.71875 25.09375 C 15.695312 25.292969 15.679688 25.496094 15.671875 25.707031 C 15.652344 25.484375 15.652344 25.257812 15.671875 25.035156 C 15.691406 24.765625 15.753906 24.511719 15.863281 24.273438 Z M 15.863281 24.273438 "/>
<use xlink:href="#surface38" mask="url(#mask11)"/>
<use xlink:href="#surface41" mask="url(#mask12)"/>
<use xlink:href="#surface44" mask="url(#mask13)"/>
<use xlink:href="#surface47" mask="url(#mask14)"/>
</g>
</svg>
