<?xml version="1.0" encoding="UTF-8"?>
<svg xmlns="http://www.w3.org/2000/svg" xmlns:xlink="http://www.w3.org/1999/xlink" width="32px" height="32px" viewBox="0 0 32 32" version="1.1">
<defs>
<filter id="alpha" filterUnits="objectBoundingBox" x="0%" y="0%" width="100%" height="100%">
  <feColorMatrix type="matrix" in="SourceGraphic" values="0 0 0 0 1 0 0 0 0 1 0 0 0 0 1 0 0 0 1 0"/>
</filter>
<mask id="mask0">
  <g filter="url(#alpha)">
<rect x="0" y="0" width="32" height="32" style="fill:rgb(0%,0%,0%);fill-opacity:0.00392157;stroke:none;"/>
  </g>
</mask>
<clipPath id="clip1">
  <rect x="0" y="0" width="32" height="32"/>
</clipPath>
<g id="surface5" clip-path="url(#clip1)">
<path style=" stroke:none;fill-rule:evenodd;fill:rgb(82.352942%,58.431375%,12.156863%);fill-opacity:1;" d="M 15.015625 1.640625 C 15.027344 1.609375 15.050781 1.601562 15.078125 1.625 C 15.058594 1.640625 15.039062 1.644531 15.015625 1.640625 Z M 15.015625 1.640625 "/>
</g>
<mask id="mask1">
  <g filter="url(#alpha)">
<rect x="0" y="0" width="32" height="32" style="fill:rgb(0%,0%,0%);fill-opacity:0.301961;stroke:none;"/>
  </g>
</mask>
<clipPath id="clip2">
  <rect x="0" y="0" width="32" height="32"/>
</clipPath>
<g id="surface8" clip-path="url(#clip2)">
<path style=" stroke:none;fill-rule:evenodd;fill:rgb(91.37255%,68.235296%,5.490196%);fill-opacity:1;" d="M 15.140625 1.671875 C 15.183594 1.667969 15.226562 1.671875 15.265625 1.6875 C 15.128906 1.699219 14.996094 1.707031 14.859375 1.71875 C 14.898438 1.734375 14.941406 1.738281 14.984375 1.734375 C 14.617188 1.765625 14.25 1.804688 13.875 1.859375 C 13.839844 1.855469 13.800781 1.847656 13.765625 1.84375 C 13.816406 1.832031 13.871094 1.824219 13.921875 1.8125 C 13.890625 1.796875 13.859375 1.792969 13.828125 1.796875 C 14.257812 1.714844 14.695312 1.675781 15.140625 1.671875 Z M 15.140625 1.671875 "/>
</g>
<mask id="mask2">
  <g filter="url(#alpha)">
<rect x="0" y="0" width="32" height="32" style="fill:rgb(0%,0%,0%);fill-opacity:0.0313725;stroke:none;"/>
  </g>
</mask>
<clipPath id="clip3">
  <rect x="0" y="0" width="32" height="32"/>
</clipPath>
<g id="surface11" clip-path="url(#clip3)">
<path style=" stroke:none;fill-rule:evenodd;fill:rgb(94.509804%,70.980394%,4.705882%);fill-opacity:1;" d="M 13.390625 1.859375 C 13.5 1.875 13.613281 1.878906 13.734375 1.875 C 12.863281 2.019531 12.015625 2.242188 11.1875 2.546875 C 11.164062 2.542969 11.148438 2.535156 11.140625 2.515625 C 11.140625 2.484375 11.15625 2.464844 11.1875 2.453125 C 11.910156 2.199219 12.644531 2 13.390625 1.859375 Z M 13.390625 1.859375 "/>
</g>
<mask id="mask3">
  <g filter="url(#alpha)">
<rect x="0" y="0" width="32" height="32" style="fill:rgb(0%,0%,0%);fill-opacity:0.00784314;stroke:none;"/>
  </g>
</mask>
<clipPath id="clip4">
  <rect x="0" y="0" width="32" height="32"/>
</clipPath>
<g id="surface14" clip-path="url(#clip4)">
<path style=" stroke:none;fill-rule:evenodd;fill:rgb(94.901961%,72.156864%,6.666667%);fill-opacity:1;" d="M 10.953125 2.546875 C 10.933594 2.503906 10.933594 2.503906 10.953125 2.546875 Z M 10.953125 2.546875 "/>
</g>
<mask id="mask4">
  <g filter="url(#alpha)">
<rect x="0" y="0" width="32" height="32" style="fill:rgb(0%,0%,0%);fill-opacity:0.054902;stroke:none;"/>
  </g>
</mask>
<clipPath id="clip5">
  <rect x="0" y="0" width="32" height="32"/>
</clipPath>
<g id="surface17" clip-path="url(#clip5)">
<path style=" stroke:none;fill-rule:evenodd;fill:rgb(93.333334%,70.588237%,5.490196%);fill-opacity:1;" d="M 17.609375 1.734375 C 18.027344 1.773438 18.4375 1.847656 18.84375 1.953125 C 18.863281 1.933594 18.886719 1.910156 18.90625 1.890625 C 18.933594 1.9375 18.96875 1.972656 19.015625 2 C 19.523438 2.097656 20.019531 2.238281 20.5 2.421875 C 20.511719 2.402344 20.519531 2.378906 20.53125 2.359375 C 20.578125 2.417969 20.636719 2.464844 20.703125 2.5 C 21.339844 2.703125 21.929688 2.96875 22.46875 3.296875 C 22.480469 3.277344 22.488281 3.253906 22.5 3.234375 C 22.523438 3.320312 22.570312 3.339844 22.640625 3.296875 C 22.703125 3.378906 22.777344 3.453125 22.859375 3.515625 C 23.101562 3.625 23.328125 3.757812 23.546875 3.90625 C 25.21875 5.066406 26.597656 6.5 27.6875 8.203125 C 28.636719 9.78125 29.265625 11.480469 29.578125 13.296875 C 29.554688 13.285156 29.539062 13.261719 29.53125 13.234375 C 29.527344 13.253906 29.519531 13.277344 29.515625 13.296875 C 29.5625 13.460938 29.578125 13.628906 29.5625 13.796875 C 29.308594 11.851562 28.683594 10.039062 27.6875 8.359375 C 25.089844 4.269531 21.355469 2.058594 16.484375 1.71875 C 16.820312 1.699219 17.152344 1.714844 17.484375 1.765625 C 17.53125 1.765625 17.574219 1.753906 17.609375 1.734375 Z M 17.609375 1.734375 "/>
</g>
<mask id="mask5">
  <g filter="url(#alpha)">
<rect x="0" y="0" width="32" height="32" style="fill:rgb(0%,0%,0%);fill-opacity:0.188235;stroke:none;"/>
  </g>
</mask>
<clipPath id="clip6">
  <rect x="0" y="0" width="32" height="32"/>
</clipPath>
<g id="surface20" clip-path="url(#clip6)">
<path style=" stroke:none;fill-rule:evenodd;fill:rgb(93.725491%,71.764708%,5.490196%);fill-opacity:1;" d="M 10.953125 2.546875 C 10.996094 2.546875 11.035156 2.546875 11.078125 2.546875 C 10.472656 2.820312 9.855469 3.117188 9.234375 3.4375 C 5.765625 5.480469 3.539062 8.464844 2.5625 12.390625 C 2.554688 12.363281 2.539062 12.339844 2.515625 12.328125 C 2.8125 11.046875 3.277344 9.828125 3.90625 8.671875 C 4.328125 7.96875 4.785156 7.292969 5.28125 6.640625 C 5.527344 6.363281 5.773438 6.109375 6.015625 5.875 C 7.390625 4.410156 9.035156 3.300781 10.953125 2.546875 Z M 10.953125 2.546875 "/>
</g>
<mask id="mask6">
  <g filter="url(#alpha)">
<rect x="0" y="0" width="32" height="32" style="fill:rgb(0%,0%,0%);fill-opacity:0.231373;stroke:none;"/>
  </g>
</mask>
<clipPath id="clip7">
  <rect x="0" y="0" width="32" height="32"/>
</clipPath>
<g id="surface23" clip-path="url(#clip7)">
<path style=" stroke:none;fill-rule:evenodd;fill:rgb(90.980393%,67.843139%,6.27451%);fill-opacity:1;" d="M 2.515625 12.421875 C 2.535156 12.433594 2.546875 12.457031 2.546875 12.484375 C 2.539062 12.566406 2.523438 12.566406 2.5 12.484375 C 2.492188 12.542969 2.496094 12.597656 2.515625 12.65625 C 2.429688 13.058594 2.355469 13.460938 2.296875 13.859375 C 2.242188 14.023438 2.210938 14.230469 2.203125 14.484375 C 2.203125 14.554688 2.214844 14.617188 2.234375 14.671875 C 2.242188 14.710938 2.230469 14.742188 2.203125 14.765625 C 2.117188 15.578125 2.128906 16.410156 2.234375 17.265625 C 2.234375 17.3125 2.222656 17.355469 2.203125 17.390625 C 2.027344 15.730469 2.117188 14.085938 2.46875 12.453125 C 2.480469 12.4375 2.496094 12.425781 2.515625 12.421875 Z M 2.515625 12.421875 "/>
</g>
<mask id="mask7">
  <g filter="url(#alpha)">
<rect x="0" y="0" width="32" height="32" style="fill:rgb(0%,0%,0%);fill-opacity:0.996078;stroke:none;"/>
  </g>
</mask>
<clipPath id="clip8">
  <rect x="0" y="0" width="32" height="32"/>
</clipPath>
<g id="surface26" clip-path="url(#clip8)">
<path style=" stroke:none;fill-rule:evenodd;fill:rgb(99.215686%,76.47059%,3.137255%);fill-opacity:1;" d="M 29.578125 13.859375 C 29.671875 14.40625 29.726562 14.964844 29.734375 15.53125 C 29.730469 16.300781 29.675781 17.066406 29.5625 17.828125 C 29.582031 17.453125 29.613281 17.078125 29.65625 16.703125 C 29.691406 15.753906 29.667969 14.804688 29.578125 13.859375 Z M 29.578125 13.859375 "/>
</g>
<mask id="mask8">
  <g filter="url(#alpha)">
<rect x="0" y="0" width="32" height="32" style="fill:rgb(0%,0%,0%);fill-opacity:0.0901961;stroke:none;"/>
  </g>
</mask>
<clipPath id="clip9">
  <rect x="0" y="0" width="32" height="32"/>
</clipPath>
<g id="surface29" clip-path="url(#clip9)">
<path style=" stroke:none;fill-rule:evenodd;fill:rgb(94.901961%,72.156864%,5.098039%);fill-opacity:1;" d="M 2.203125 14.765625 C 2.109375 16.644531 2.34375 18.476562 2.90625 20.265625 C 2.851562 20.105469 2.796875 19.972656 2.734375 19.859375 C 2.46875 19.0625 2.289062 18.238281 2.203125 17.390625 C 2.222656 17.355469 2.234375 17.3125 2.234375 17.265625 C 2.128906 16.410156 2.117188 15.578125 2.203125 14.765625 Z M 2.203125 14.765625 "/>
</g>
<mask id="mask9">
  <g filter="url(#alpha)">
<rect x="0" y="0" width="32" height="32" style="fill:rgb(0%,0%,0%);fill-opacity:0.180392;stroke:none;"/>
  </g>
</mask>
<clipPath id="clip10">
  <rect x="0" y="0" width="32" height="32"/>
</clipPath>
<g id="surface32" clip-path="url(#clip10)">
<path style=" stroke:none;fill-rule:evenodd;fill:rgb(93.333334%,71.372551%,5.490196%);fill-opacity:1;" d="M 6.578125 25.953125 C 6.527344 25.925781 6.476562 25.902344 6.421875 25.875 C 4.835938 24.34375 3.667969 22.539062 2.921875 20.453125 C 2.933594 20.40625 2.941406 20.355469 2.9375 20.296875 C 3.59375 22.152344 4.582031 23.796875 5.90625 25.234375 C 6.15625 25.46875 6.382812 25.710938 6.578125 25.953125 Z M 6.578125 25.953125 "/>
</g>
<mask id="mask10">
  <g filter="url(#alpha)">
<rect x="0" y="0" width="32" height="32" style="fill:rgb(0%,0%,0%);fill-opacity:0.184314;stroke:none;"/>
  </g>
</mask>
<clipPath id="clip11">
  <rect x="0" y="0" width="32" height="32"/>
</clipPath>
<g id="surface35" clip-path="url(#clip11)">
<path style=" stroke:none;fill-rule:evenodd;fill:rgb(92.54902%,69.803923%,5.882353%);fill-opacity:1;" d="M 29.515625 18.421875 C 28.6875 22.332031 26.625 25.378906 23.328125 27.5625 C 22.757812 27.902344 22.171875 28.226562 21.578125 28.53125 C 21.15625 28.695312 20.734375 28.855469 20.3125 29.015625 C 19.734375 29.199219 19.144531 29.34375 18.546875 29.453125 C 18.523438 29.429688 18.492188 29.414062 18.453125 29.40625 C 19.792969 29.152344 21.0625 28.714844 22.265625 28.09375 C 26.105469 25.960938 28.496094 22.734375 29.4375 18.421875 C 29.449219 18.441406 29.457031 18.464844 29.46875 18.484375 C 29.476562 18.457031 29.492188 18.433594 29.515625 18.421875 Z M 29.515625 18.421875 "/>
</g>
<mask id="mask11">
  <g filter="url(#alpha)">
<rect x="0" y="0" width="32" height="32" style="fill:rgb(0%,0%,0%);fill-opacity:0.137255;stroke:none;"/>
  </g>
</mask>
<clipPath id="clip12">
  <rect x="0" y="0" width="32" height="32"/>
</clipPath>
<g id="surface38" clip-path="url(#clip12)">
<path style=" stroke:none;fill-rule:evenodd;fill:rgb(92.54902%,69.01961%,4.313726%);fill-opacity:1;" d="M 12.265625 29.140625 C 12.167969 29.132812 12.074219 29.113281 11.984375 29.078125 C 11.957031 29.078125 11.933594 29.089844 11.921875 29.109375 C 11.054688 28.839844 10.222656 28.488281 9.421875 28.0625 C 8.488281 27.539062 7.625 26.929688 6.828125 26.234375 C 6.84375 26.238281 6.851562 26.230469 6.859375 26.21875 C 6.796875 26.15625 6.734375 26.09375 6.671875 26.03125 C 6.691406 26.011719 6.714844 26.011719 6.734375 26.03125 C 8.335938 27.488281 10.179688 28.523438 12.265625 29.140625 Z M 12.265625 29.140625 "/>
</g>
<mask id="mask12">
  <g filter="url(#alpha)">
<rect x="0" y="0" width="32" height="32" style="fill:rgb(0%,0%,0%);fill-opacity:0.709804;stroke:none;"/>
  </g>
</mask>
<clipPath id="clip13">
  <rect x="0" y="0" width="32" height="32"/>
</clipPath>
<g id="surface41" clip-path="url(#clip13)">
<path style=" stroke:none;fill-rule:evenodd;fill:rgb(99.215686%,78.039217%,3.529412%);fill-opacity:1;" d="M 12.265625 29.140625 C 12.515625 29.1875 12.765625 29.246094 13.015625 29.3125 C 12.753906 29.292969 12.503906 29.238281 12.265625 29.140625 Z M 12.265625 29.140625 "/>
</g>
<mask id="mask13">
  <g filter="url(#alpha)">
<rect x="0" y="0" width="32" height="32" style="fill:rgb(0%,0%,0%);fill-opacity:0.854902;stroke:none;"/>
  </g>
</mask>
<clipPath id="clip14">
  <rect x="0" y="0" width="32" height="32"/>
</clipPath>
<g id="surface44" clip-path="url(#clip14)">
<path style=" stroke:none;fill-rule:evenodd;fill:rgb(99.215686%,77.64706%,3.921569%);fill-opacity:1;" d="M 16.390625 29.640625 C 16.429688 29.632812 16.460938 29.644531 16.484375 29.671875 C 15.613281 29.6875 14.75 29.632812 13.890625 29.5 C 14.71875 29.585938 15.554688 29.632812 16.390625 29.640625 Z M 16.390625 29.640625 "/>
</g>
<mask id="mask14">
  <g filter="url(#alpha)">
<rect x="0" y="0" width="32" height="32" style="fill:rgb(0%,0%,0%);fill-opacity:0.188235;stroke:none;"/>
  </g>
</mask>
<clipPath id="clip15">
  <rect x="0" y="0" width="32" height="32"/>
</clipPath>
<g id="surface47" clip-path="url(#clip15)">
<path style=" stroke:none;fill-rule:evenodd;fill:rgb(92.54902%,67.450982%,4.705882%);fill-opacity:1;" d="M 18.390625 29.484375 C 17.953125 29.582031 17.503906 29.644531 17.046875 29.671875 C 16.863281 29.636719 16.675781 29.636719 16.484375 29.671875 C 16.460938 29.644531 16.429688 29.632812 16.390625 29.640625 C 17.03125 29.605469 17.671875 29.53125 18.3125 29.421875 C 18.339844 29.425781 18.363281 29.433594 18.390625 29.4375 C 18.265625 29.460938 18.265625 29.476562 18.390625 29.484375 Z M 18.390625 29.484375 "/>
</g>
</defs>
<g id="surface1">
<use xlink:href="#surface5" mask="url(#mask0)"/>
<use xlink:href="#surface8" mask="url(#mask1)"/>
<path style=" stroke:none;fill-rule:evenodd;fill:rgb(98.039216%,76.078433%,4.313726%);fill-opacity:1;" d="M 15.140625 1.671875 C 15.25 1.640625 15.363281 1.628906 15.484375 1.640625 C 15.792969 1.667969 16.105469 1.683594 16.421875 1.6875 C 15.941406 1.703125 15.464844 1.71875 14.984375 1.734375 C 14.941406 1.738281 14.898438 1.734375 14.859375 1.71875 C 14.996094 1.707031 15.128906 1.699219 15.265625 1.6875 C 15.226562 1.671875 15.183594 1.667969 15.140625 1.671875 Z M 15.140625 1.671875 "/>
<path style=" stroke:none;fill-rule:evenodd;fill:rgb(88.235295%,60.392159%,5.490196%);fill-opacity:1;" d="M 15.484375 1.640625 C 16.195312 1.625 16.902344 1.65625 17.609375 1.734375 C 17.574219 1.753906 17.53125 1.765625 17.484375 1.765625 C 17.152344 1.714844 16.820312 1.699219 16.484375 1.71875 C 21.355469 2.058594 25.089844 4.269531 27.6875 8.359375 C 28.683594 10.039062 29.308594 11.851562 29.5625 13.796875 C 29.578125 13.628906 29.5625 13.460938 29.515625 13.296875 C 29.519531 13.277344 29.527344 13.253906 29.53125 13.234375 C 29.539062 13.261719 29.554688 13.285156 29.578125 13.296875 C 29.847656 15.007812 29.824219 16.71875 29.515625 18.421875 C 29.492188 18.433594 29.476562 18.457031 29.46875 18.484375 C 29.457031 18.464844 29.449219 18.441406 29.4375 18.421875 C 28.496094 22.734375 26.105469 25.960938 22.265625 28.09375 C 21.0625 28.714844 19.792969 29.152344 18.453125 29.40625 C 18.492188 29.414062 18.523438 29.429688 18.546875 29.453125 C 18.492188 29.449219 18.4375 29.460938 18.390625 29.484375 C 18.265625 29.476562 18.265625 29.460938 18.390625 29.4375 C 18.363281 29.433594 18.339844 29.425781 18.3125 29.421875 C 17.671875 29.53125 17.03125 29.605469 16.390625 29.640625 C 15.554688 29.632812 14.71875 29.585938 13.890625 29.5 C 14.75 29.632812 15.613281 29.6875 16.484375 29.671875 C 16.675781 29.636719 16.863281 29.636719 17.046875 29.671875 C 15.300781 29.804688 13.589844 29.617188 11.921875 29.109375 C 11.933594 29.089844 11.957031 29.078125 11.984375 29.078125 C 12.074219 29.113281 12.167969 29.132812 12.265625 29.140625 C 10.179688 28.523438 8.335938 27.488281 6.734375 26.03125 C 6.714844 26.011719 6.691406 26.011719 6.671875 26.03125 C 6.734375 26.09375 6.796875 26.15625 6.859375 26.21875 C 6.851562 26.230469 6.84375 26.238281 6.828125 26.234375 C 6.722656 26.160156 6.636719 26.066406 6.578125 25.953125 C 6.382812 25.710938 6.15625 25.46875 5.90625 25.234375 C 4.582031 23.796875 3.59375 22.152344 2.9375 20.296875 C 2.941406 20.355469 2.933594 20.40625 2.921875 20.453125 C 2.835938 20.265625 2.773438 20.066406 2.734375 19.859375 C 2.796875 19.972656 2.851562 20.105469 2.90625 20.265625 C 2.34375 18.476562 2.109375 16.644531 2.203125 14.765625 C 2.230469 14.742188 2.242188 14.710938 2.234375 14.671875 C 2.246094 14.398438 2.265625 14.128906 2.296875 13.859375 C 2.355469 13.460938 2.429688 13.058594 2.515625 12.65625 C 2.496094 12.597656 2.492188 12.542969 2.5 12.484375 C 2.523438 12.566406 2.539062 12.566406 2.546875 12.484375 C 2.546875 12.457031 2.535156 12.433594 2.515625 12.421875 C 2.515625 12.390625 2.515625 12.359375 2.515625 12.328125 C 2.539062 12.339844 2.554688 12.363281 2.5625 12.390625 C 3.539062 8.464844 5.765625 5.480469 9.234375 3.4375 C 9.855469 3.117188 10.472656 2.820312 11.078125 2.546875 C 11.089844 2.519531 11.109375 2.511719 11.140625 2.515625 C 11.148438 2.535156 11.164062 2.542969 11.1875 2.546875 C 12.015625 2.242188 12.863281 2.019531 13.734375 1.875 C 13.613281 1.878906 13.5 1.875 13.390625 1.859375 C 13.535156 1.824219 13.679688 1.804688 13.828125 1.796875 C 13.859375 1.792969 13.890625 1.796875 13.921875 1.8125 C 13.871094 1.824219 13.816406 1.832031 13.765625 1.84375 C 13.800781 1.847656 13.839844 1.855469 13.875 1.859375 C 14.25 1.804688 14.617188 1.765625 14.984375 1.734375 C 15.464844 1.71875 15.941406 1.703125 16.421875 1.6875 C 16.105469 1.683594 15.792969 1.667969 15.484375 1.640625 Z M 15.484375 1.640625 "/>
<use xlink:href="#surface11" mask="url(#mask2)"/>
<use xlink:href="#surface14" mask="url(#mask3)"/>
<path style=" stroke:none;fill-rule:evenodd;fill:rgb(99.607843%,84.313726%,41.960785%);fill-opacity:1;" d="M 17.640625 28.484375 C 17.382812 28.128906 17.097656 27.796875 16.78125 27.484375 C 16.765625 27.246094 16.761719 27.003906 16.765625 26.765625 C 16.777344 26.464844 16.828125 26.175781 16.921875 25.890625 C 17.105469 25.390625 17.359375 24.933594 17.6875 24.515625 C 17.746094 24.394531 17.796875 24.269531 17.84375 24.140625 C 17.925781 23.644531 17.988281 23.144531 18.03125 22.640625 C 18.089844 22.269531 18.25 21.953125 18.515625 21.6875 C 18.566406 21.65625 18.621094 21.625 18.671875 21.59375 C 18.972656 21.488281 19.273438 21.402344 19.578125 21.328125 C 20.105469 21.261719 20.542969 21.035156 20.890625 20.640625 C 21.011719 20.472656 21.089844 20.285156 21.125 20.078125 C 21.128906 19.703125 21.121094 19.328125 21.109375 18.953125 C 21.171875 18.75 21.265625 18.5625 21.390625 18.390625 C 21.503906 18.222656 21.515625 18.046875 21.421875 17.859375 C 21.515625 17.710938 21.613281 17.5625 21.71875 17.421875 C 21.753906 17.363281 21.769531 17.300781 21.765625 17.234375 C 21.722656 16.820312 21.648438 16.414062 21.546875 16.015625 C 21.710938 15.890625 21.867188 15.757812 22.015625 15.609375 C 22.1875 15.414062 22.214844 15.195312 22.09375 14.953125 C 21.792969 14.4375 21.484375 13.925781 21.171875 13.421875 C 21.511719 13.089844 21.746094 12.695312 21.875 12.234375 C 21.894531 12.054688 21.890625 11.878906 21.859375 11.703125 C 21.832031 11.582031 21.785156 11.46875 21.71875 11.359375 C 21.527344 11.097656 21.347656 10.828125 21.1875 10.546875 C 21.09375 10.039062 20.96875 9.539062 20.8125 9.046875 C 20.742188 8.867188 20.644531 8.710938 20.515625 8.578125 C 21.140625 7.769531 21.210938 6.917969 20.71875 6.015625 C 20.53125 5.742188 20.320312 5.492188 20.078125 5.265625 C 20.003906 5.167969 19.917969 5.082031 19.8125 5.015625 C 19.847656 5.113281 19.871094 5.21875 19.890625 5.328125 C 19.925781 5.589844 19.859375 5.820312 19.6875 6.015625 C 19.421875 5.375 18.96875 4.921875 18.328125 4.65625 C 18.28125 4.632812 18.242188 4.636719 18.203125 4.671875 C 18.292969 4.847656 18.320312 5.035156 18.28125 5.234375 C 18.203125 5.355469 18.09375 5.402344 17.953125 5.375 C 17.691406 5.011719 17.347656 4.761719 16.921875 4.625 C 16.867188 4.601562 16.816406 4.605469 16.765625 4.640625 C 16.632812 4.871094 16.429688 4.976562 16.15625 4.953125 C 15.765625 4.910156 15.386719 4.839844 15.015625 4.734375 C 15.039062 4.738281 15.058594 4.734375 15.078125 4.71875 C 14.535156 4.609375 13.992188 4.621094 13.453125 4.75 C 12.808594 4.90625 12.214844 5.140625 11.671875 5.453125 C 9.589844 6.410156 8.445312 8.035156 8.234375 10.328125 C 8.1875 10.554688 8.167969 10.824219 8.171875 11.140625 C 8.167969 11.351562 8.179688 11.496094 8.203125 11.578125 C 8.234375 11.675781 8.246094 11.78125 8.234375 11.890625 C 8.375 13.136719 8.71875 14.324219 9.265625 15.453125 C 9.230469 15.476562 9.226562 15.507812 9.25 15.546875 C 9.492188 16.019531 9.714844 16.476562 9.921875 16.921875 C 10.332031 17.796875 10.40625 18.703125 10.140625 19.640625 C 9.839844 20.53125 9.453125 21.386719 8.984375 22.203125 C 8.875 22.191406 8.773438 22.207031 8.671875 22.25 C 7.914062 22.917969 7.144531 23.570312 6.359375 24.203125 C 4.675781 22.28125 3.660156 20.042969 3.3125 17.484375 C 2.882812 14.097656 3.625 10.992188 5.53125 8.171875 C 8.320312 4.421875 12.066406 2.625 16.765625 2.78125 C 21.222656 3.183594 24.601562 5.28125 26.90625 9.078125 C 28.902344 12.605469 29.246094 16.292969 27.9375 20.140625 C 26.644531 23.558594 24.335938 26.035156 21.015625 27.5625 C 19.929688 28.015625 18.804688 28.324219 17.640625 28.484375 Z M 17.640625 28.484375 "/>
<path style=" stroke:none;fill-rule:evenodd;fill:rgb(63.921571%,36.862746%,0%);fill-opacity:1;" d="M 19.890625 5.328125 C 19.914062 5.382812 19.929688 5.445312 19.9375 5.515625 C 19.945312 5.398438 19.945312 5.285156 19.9375 5.171875 C 19.972656 5.222656 20.019531 5.253906 20.078125 5.265625 C 20.320312 5.492188 20.53125 5.742188 20.71875 6.015625 C 21.210938 6.917969 21.140625 7.769531 20.515625 8.578125 C 20.367188 8.4375 20.199219 8.316406 20.015625 8.21875 C 19.039062 7.949219 18.042969 7.785156 17.03125 7.734375 C 16.484375 7.730469 15.96875 7.847656 15.484375 8.09375 C 15.46875 8.105469 15.460938 8.121094 15.453125 8.140625 C 15.816406 8.792969 16.167969 9.449219 16.515625 10.109375 C 16.480469 10.152344 16.4375 10.1875 16.390625 10.21875 C 16 10.417969 15.613281 10.628906 15.234375 10.84375 C 14.894531 11.128906 14.671875 11.488281 14.5625 11.921875 C 14.445312 12.539062 14.320312 13.152344 14.1875 13.765625 C 14.074219 14.113281 13.929688 14.445312 13.75 14.765625 C 13.628906 13.914062 13.21875 13.242188 12.515625 12.75 C 12.214844 12.53125 11.894531 12.355469 11.546875 12.21875 C 10.820312 11.945312 10.292969 12.160156 9.96875 12.859375 C 9.875 14.097656 10.359375 15.042969 11.421875 15.6875 C 11.742188 15.84375 12.0625 15.988281 12.390625 16.125 C 12.527344 16.144531 12.660156 16.144531 12.796875 16.125 C 12.910156 16.074219 12.980469 15.984375 13 15.859375 C 13.117188 16.503906 13.273438 17.140625 13.46875 17.765625 C 13.683594 18.242188 14.03125 18.578125 14.515625 18.78125 C 15.738281 19.304688 16.957031 19.835938 18.171875 20.375 C 18.925781 20.691406 19.707031 20.8125 20.515625 20.734375 C 20.585938 20.765625 20.65625 20.769531 20.734375 20.75 C 20.625 20.824219 20.519531 20.910156 20.421875 21 C 20.144531 21.132812 19.863281 21.242188 19.578125 21.328125 C 19.273438 21.402344 18.972656 21.488281 18.671875 21.59375 C 18.621094 21.625 18.566406 21.65625 18.515625 21.6875 C 18.25 21.953125 18.089844 22.269531 18.03125 22.640625 C 17.988281 23.144531 17.925781 23.644531 17.84375 24.140625 C 17.796875 24.269531 17.746094 24.394531 17.6875 24.515625 C 17.359375 24.933594 17.105469 25.390625 16.921875 25.890625 C 16.804688 26.144531 16.738281 26.417969 16.71875 26.703125 C 16.699219 26.941406 16.699219 27.183594 16.71875 27.421875 C 16.722656 27.199219 16.738281 26.980469 16.765625 26.765625 C 16.761719 27.003906 16.765625 27.246094 16.78125 27.484375 C 17.097656 27.796875 17.382812 28.128906 17.640625 28.484375 C 13.773438 28.9375 10.375 27.890625 7.453125 25.34375 C 7.070312 24.976562 6.707031 24.597656 6.359375 24.203125 C 7.144531 23.570312 7.914062 22.917969 8.671875 22.25 C 8.773438 22.207031 8.875 22.191406 8.984375 22.203125 C 9.445312 22.472656 9.882812 22.777344 10.296875 23.125 C 11.492188 24.226562 12.679688 25.34375 13.859375 26.46875 C 14.433594 26.886719 15.0625 27.195312 15.75 27.390625 C 15.757812 26.691406 15.714844 25.992188 15.625 25.296875 C 15.398438 24.15625 15.136719 23.019531 14.84375 21.890625 C 14.722656 21.421875 14.535156 20.984375 14.28125 20.578125 C 13.96875 20.222656 13.636719 19.890625 13.28125 19.578125 C 12.976562 19.207031 12.800781 18.78125 12.75 18.296875 C 12.691406 17.976562 12.644531 17.652344 12.609375 17.328125 C 12.007812 17.160156 11.535156 16.816406 11.1875 16.296875 C 11.023438 17.476562 10.671875 18.589844 10.140625 19.640625 C 10.40625 18.703125 10.332031 17.796875 9.921875 16.921875 C 9.863281 16.742188 9.796875 16.566406 9.71875 16.390625 C 9.558594 16.082031 9.40625 15.769531 9.265625 15.453125 C 8.71875 14.324219 8.375 13.136719 8.234375 11.890625 C 8.277344 11.433594 8.277344 10.972656 8.234375 10.515625 C 8.234375 10.453125 8.234375 10.390625 8.234375 10.328125 C 8.445312 8.035156 9.589844 6.410156 11.671875 5.453125 C 12.257812 5.160156 12.875 4.933594 13.515625 4.78125 C 14.011719 4.695312 14.511719 4.679688 15.015625 4.734375 C 15.386719 4.839844 15.765625 4.910156 16.15625 4.953125 C 16.429688 4.976562 16.632812 4.871094 16.765625 4.640625 C 16.816406 4.605469 16.867188 4.601562 16.921875 4.625 C 17.347656 4.761719 17.691406 5.011719 17.953125 5.375 C 18.09375 5.402344 18.203125 5.355469 18.28125 5.234375 C 18.320312 5.035156 18.292969 4.847656 18.203125 4.671875 C 18.242188 4.636719 18.28125 4.632812 18.328125 4.65625 C 18.96875 4.921875 19.421875 5.375 19.6875 6.015625 C 19.859375 5.820312 19.925781 5.589844 19.890625 5.328125 Z M 19.890625 5.328125 "/>
<path style=" stroke:none;fill-rule:evenodd;fill:rgb(97.647059%,90.980393%,49.803922%);fill-opacity:1;" d="M 15.015625 4.734375 C 14.511719 4.679688 14.011719 4.695312 13.515625 4.78125 C 12.875 4.933594 12.257812 5.160156 11.671875 5.453125 C 12.214844 5.140625 12.808594 4.90625 13.453125 4.75 C 13.992188 4.621094 14.535156 4.609375 15.078125 4.71875 C 15.058594 4.734375 15.039062 4.738281 15.015625 4.734375 Z M 15.015625 4.734375 "/>
<path style=" stroke:none;fill-rule:evenodd;fill:rgb(56.470591%,25.882354%,0.784314%);fill-opacity:1;" d="M 20.078125 5.265625 C 20.019531 5.253906 19.972656 5.222656 19.9375 5.171875 C 19.945312 5.285156 19.945312 5.398438 19.9375 5.515625 C 19.929688 5.445312 19.914062 5.382812 19.890625 5.328125 C 19.871094 5.21875 19.847656 5.113281 19.8125 5.015625 C 19.917969 5.082031 20.003906 5.167969 20.078125 5.265625 Z M 20.078125 5.265625 "/>
<use xlink:href="#surface17" mask="url(#mask4)"/>
<use xlink:href="#surface20" mask="url(#mask5)"/>
<path style=" stroke:none;fill-rule:evenodd;fill:rgb(92.54902%,65.490198%,8.627451%);fill-opacity:1;" d="M 20.515625 8.578125 C 20.644531 8.710938 20.742188 8.867188 20.8125 9.046875 C 20.96875 9.539062 21.09375 10.039062 21.1875 10.546875 C 21.347656 10.828125 21.527344 11.097656 21.71875 11.359375 C 21.785156 11.46875 21.832031 11.582031 21.859375 11.703125 C 21.542969 11.867188 21.257812 12.078125 21 12.328125 C 20.835938 12.519531 20.816406 12.730469 20.9375 12.953125 C 21 13.121094 21.078125 13.277344 21.171875 13.421875 C 21.484375 13.925781 21.792969 14.4375 22.09375 14.953125 C 22.214844 15.195312 22.1875 15.414062 22.015625 15.609375 C 21.761719 15.578125 21.511719 15.53125 21.265625 15.46875 C 20.835938 15.457031 20.410156 15.46875 19.984375 15.5 C 19.902344 15.425781 19.902344 15.355469 19.984375 15.28125 C 19.773438 15.355469 19.695312 15.503906 19.75 15.734375 C 19.796875 15.851562 19.875 15.941406 19.984375 16 C 20.191406 15.992188 20.402344 15.992188 20.609375 16 C 20.921875 16.078125 21.234375 16.144531 21.546875 16.203125 C 21.546875 16.140625 21.546875 16.078125 21.546875 16.015625 C 21.648438 16.414062 21.722656 16.820312 21.765625 17.234375 C 21.730469 17.195312 21.6875 17.15625 21.640625 17.125 C 21.359375 17.097656 21.078125 17.085938 20.796875 17.09375 C 20.316406 17.292969 19.859375 17.53125 19.421875 17.8125 C 19.535156 17.832031 19.652344 17.832031 19.765625 17.8125 C 20.089844 17.730469 20.417969 17.664062 20.75 17.609375 C 20.925781 17.621094 21.097656 17.65625 21.265625 17.71875 C 21.332031 17.75 21.386719 17.796875 21.421875 17.859375 C 21.515625 18.046875 21.503906 18.222656 21.390625 18.390625 C 20.902344 18.371094 20.425781 18.300781 19.953125 18.171875 C 19.945312 18.472656 20.058594 18.71875 20.296875 18.90625 C 20.554688 18.957031 20.816406 19.003906 21.078125 19.046875 C 21.070312 19.007812 21.082031 18.976562 21.109375 18.953125 C 21.121094 19.328125 21.128906 19.703125 21.125 20.078125 C 21.089844 20.285156 21.011719 20.472656 20.890625 20.640625 C 20.765625 20.671875 20.640625 20.703125 20.515625 20.734375 C 19.707031 20.8125 18.925781 20.691406 18.171875 20.375 C 16.957031 19.835938 15.738281 19.304688 14.515625 18.78125 C 14.03125 18.578125 13.683594 18.242188 13.46875 17.765625 C 13.273438 17.140625 13.117188 16.503906 13 15.859375 C 12.980469 15.984375 12.910156 16.074219 12.796875 16.125 C 12.660156 16.144531 12.527344 16.144531 12.390625 16.125 C 12.0625 15.988281 11.742188 15.84375 11.421875 15.6875 C 10.359375 15.042969 9.875 14.097656 9.96875 12.859375 C 10.292969 12.160156 10.820312 11.945312 11.546875 12.21875 C 11.894531 12.355469 12.214844 12.53125 12.515625 12.75 C 13.21875 13.242188 13.628906 13.914062 13.75 14.765625 C 13.929688 14.445312 14.074219 14.113281 14.1875 13.765625 C 14.320312 13.152344 14.445312 12.539062 14.5625 11.921875 C 14.671875 11.488281 14.894531 11.128906 15.234375 10.84375 C 15.613281 10.628906 16 10.417969 16.390625 10.21875 C 16.4375 10.1875 16.480469 10.152344 16.515625 10.109375 C 16.167969 9.449219 15.816406 8.792969 15.453125 8.140625 C 15.460938 8.121094 15.46875 8.105469 15.484375 8.09375 C 15.96875 7.847656 16.484375 7.730469 17.03125 7.734375 C 18.042969 7.785156 19.039062 7.949219 20.015625 8.21875 C 20.199219 8.316406 20.367188 8.4375 20.515625 8.578125 Z M 20.515625 8.578125 "/>
<path style=" stroke:none;fill-rule:evenodd;fill:rgb(63.529414%,36.470589%,0%);fill-opacity:1;" d="M 18.296875 10.953125 C 19.011719 10.929688 19.667969 11.109375 20.265625 11.5 C 20.558594 11.773438 20.59375 12.082031 20.375 12.421875 C 20.152344 12.582031 19.949219 12.761719 19.765625 12.96875 C 19.617188 13.066406 19.464844 13.070312 19.3125 12.984375 C 19.226562 13.085938 19.117188 13.15625 18.984375 13.1875 C 18.394531 13.238281 17.839844 13.113281 17.328125 12.8125 C 17.765625 12.285156 18.320312 11.941406 18.984375 11.78125 C 18.5 11.523438 17.988281 11.460938 17.453125 11.59375 C 17.253906 11.652344 17.066406 11.726562 16.890625 11.8125 C 17.285156 11.398438 17.753906 11.109375 18.296875 10.953125 Z M 18.296875 10.953125 "/>
<path style=" stroke:none;fill-rule:evenodd;fill:rgb(59.607846%,30.19608%,2.352941%);fill-opacity:1;" d="M 8.234375 10.515625 C 8.277344 10.972656 8.277344 11.433594 8.234375 11.890625 C 8.246094 11.78125 8.234375 11.675781 8.203125 11.578125 C 8.199219 11.222656 8.207031 10.871094 8.234375 10.515625 Z M 8.234375 10.515625 "/>
<path style=" stroke:none;fill-rule:evenodd;fill:rgb(99.607843%,96.470588%,54.901963%);fill-opacity:1;" d="M 8.234375 10.328125 C 8.234375 10.390625 8.234375 10.453125 8.234375 10.515625 C 8.207031 10.871094 8.199219 11.222656 8.203125 11.578125 C 8.179688 11.496094 8.167969 11.351562 8.171875 11.140625 C 8.167969 10.824219 8.1875 10.554688 8.234375 10.328125 Z M 8.234375 10.328125 "/>
<path style=" stroke:none;fill-rule:evenodd;fill:rgb(63.137257%,35.686275%,0%);fill-opacity:1;" d="M 21.859375 11.703125 C 21.890625 11.878906 21.894531 12.054688 21.875 12.234375 C 21.746094 12.695312 21.511719 13.089844 21.171875 13.421875 C 21.078125 13.277344 21 13.121094 20.9375 12.953125 C 20.816406 12.730469 20.835938 12.519531 21 12.328125 C 21.257812 12.078125 21.542969 11.867188 21.859375 11.703125 Z M 21.859375 11.703125 "/>
<path style=" stroke:none;fill-rule:evenodd;fill:rgb(63.529414%,36.078432%,0%);fill-opacity:1;" d="M 10.671875 12.546875 C 11.203125 12.539062 11.613281 12.757812 11.90625 13.203125 C 12.015625 13.371094 12.09375 13.554688 12.140625 13.75 C 12.097656 13.847656 12.039062 13.933594 11.96875 14.015625 C 11.945312 14.117188 11.964844 14.210938 12.03125 14.296875 C 12.203125 14.433594 12.371094 14.582031 12.53125 14.734375 C 12.636719 14.878906 12.628906 15.015625 12.515625 15.140625 C 12.464844 15.171875 12.414062 15.175781 12.359375 15.15625 C 12.265625 15.050781 12.160156 14.957031 12.046875 14.875 C 11.859375 14.792969 11.660156 14.742188 11.453125 14.71875 C 11.359375 14.6875 11.28125 14.628906 11.21875 14.546875 C 11.136719 14.265625 11.121094 13.976562 11.171875 13.6875 C 11.0625 13.382812 10.863281 13.308594 10.578125 13.46875 C 10.542969 13.527344 10.503906 13.582031 10.46875 13.640625 C 10.457031 13.777344 10.449219 13.910156 10.4375 14.046875 C 10.246094 13.738281 10.183594 13.40625 10.25 13.046875 C 10.308594 12.804688 10.449219 12.640625 10.671875 12.546875 Z M 10.671875 12.546875 "/>
<use xlink:href="#surface23" mask="url(#mask6)"/>
<path style=" stroke:none;fill-rule:evenodd;fill:rgb(99.215686%,78.431374%,4.705882%);fill-opacity:1;" d="M 2.296875 13.859375 C 2.265625 14.128906 2.246094 14.398438 2.234375 14.671875 C 2.214844 14.617188 2.203125 14.554688 2.203125 14.484375 C 2.210938 14.230469 2.242188 14.023438 2.296875 13.859375 Z M 2.296875 13.859375 "/>
<path style=" stroke:none;fill-rule:evenodd;fill:rgb(63.137257%,35.686275%,0%);fill-opacity:1;" d="M 22.015625 15.609375 C 21.867188 15.757812 21.710938 15.890625 21.546875 16.015625 C 21.546875 16.078125 21.546875 16.140625 21.546875 16.203125 C 21.234375 16.144531 20.921875 16.078125 20.609375 16 C 20.402344 15.992188 20.191406 15.992188 19.984375 16 C 19.875 15.941406 19.796875 15.851562 19.75 15.734375 C 19.695312 15.503906 19.773438 15.355469 19.984375 15.28125 C 19.902344 15.355469 19.902344 15.425781 19.984375 15.5 C 20.410156 15.46875 20.835938 15.457031 21.265625 15.46875 C 21.511719 15.53125 21.761719 15.578125 22.015625 15.609375 Z M 22.015625 15.609375 "/>
<path style=" stroke:none;fill-rule:evenodd;fill:rgb(98.039216%,91.37255%,49.803922%);fill-opacity:1;" d="M 9.265625 15.453125 C 9.40625 15.769531 9.558594 16.082031 9.71875 16.390625 C 9.796875 16.566406 9.863281 16.742188 9.921875 16.921875 C 9.714844 16.476562 9.492188 16.019531 9.25 15.546875 C 9.226562 15.507812 9.230469 15.476562 9.265625 15.453125 Z M 9.265625 15.453125 "/>
<path style=" stroke:none;fill-rule:evenodd;fill:rgb(92.54902%,65.490198%,9.019608%);fill-opacity:1;" d="M 8.984375 22.203125 C 9.453125 21.386719 9.839844 20.53125 10.140625 19.640625 C 10.671875 18.589844 11.023438 17.476562 11.1875 16.296875 C 11.535156 16.816406 12.007812 17.160156 12.609375 17.328125 C 12.644531 17.652344 12.691406 17.976562 12.75 18.296875 C 12.800781 18.78125 12.976562 19.207031 13.28125 19.578125 C 13.636719 19.890625 13.96875 20.222656 14.28125 20.578125 C 14.535156 20.984375 14.722656 21.421875 14.84375 21.890625 C 15.136719 23.019531 15.398438 24.15625 15.625 25.296875 C 15.714844 25.992188 15.757812 26.691406 15.75 27.390625 C 15.0625 27.195312 14.433594 26.886719 13.859375 26.46875 C 12.679688 25.34375 11.492188 24.226562 10.296875 23.125 C 9.882812 22.777344 9.445312 22.472656 8.984375 22.203125 Z M 8.984375 22.203125 "/>
<use xlink:href="#surface26" mask="url(#mask7)"/>
<path style=" stroke:none;fill-rule:evenodd;fill:rgb(63.137257%,35.686275%,0%);fill-opacity:1;" d="M 21.765625 17.234375 C 21.769531 17.300781 21.753906 17.363281 21.71875 17.421875 C 21.613281 17.5625 21.515625 17.710938 21.421875 17.859375 C 21.386719 17.796875 21.332031 17.75 21.265625 17.71875 C 21.097656 17.65625 20.925781 17.621094 20.75 17.609375 C 20.417969 17.664062 20.089844 17.730469 19.765625 17.8125 C 19.652344 17.832031 19.535156 17.832031 19.421875 17.8125 C 19.859375 17.53125 20.316406 17.292969 20.796875 17.09375 C 21.078125 17.085938 21.359375 17.097656 21.640625 17.125 C 21.6875 17.15625 21.730469 17.195312 21.765625 17.234375 Z M 21.765625 17.234375 "/>
<path style=" stroke:none;fill-rule:evenodd;fill:rgb(63.137257%,35.686275%,0%);fill-opacity:1;" d="M 21.390625 18.390625 C 21.265625 18.5625 21.171875 18.75 21.109375 18.953125 C 21.082031 18.976562 21.070312 19.007812 21.078125 19.046875 C 20.816406 19.003906 20.554688 18.957031 20.296875 18.90625 C 20.058594 18.71875 19.945312 18.472656 19.953125 18.171875 C 20.425781 18.300781 20.902344 18.371094 21.390625 18.390625 Z M 21.390625 18.390625 "/>
<use xlink:href="#surface29" mask="url(#mask8)"/>
<path style=" stroke:none;fill-rule:evenodd;fill:rgb(57.647061%,28.235295%,1.176471%);fill-opacity:1;" d="M 20.890625 20.640625 C 20.542969 21.035156 20.105469 21.261719 19.578125 21.328125 C 19.863281 21.242188 20.144531 21.132812 20.421875 21 C 20.519531 20.910156 20.625 20.824219 20.734375 20.75 C 20.65625 20.769531 20.585938 20.765625 20.515625 20.734375 C 20.640625 20.703125 20.765625 20.671875 20.890625 20.640625 Z M 20.890625 20.640625 "/>
<path style=" stroke:none;fill-rule:evenodd;fill:rgb(92.941177%,66.274512%,9.019608%);fill-opacity:1;" d="M 16.140625 22.671875 C 16.574219 23.066406 17.054688 23.398438 17.578125 23.671875 C 17.460938 23.925781 17.300781 24.144531 17.09375 24.328125 C 16.613281 23.871094 16.292969 23.320312 16.140625 22.671875 Z M 16.140625 22.671875 "/>
<use xlink:href="#surface32" mask="url(#mask9)"/>
<use xlink:href="#surface35" mask="url(#mask10)"/>
<path style=" stroke:none;fill-rule:evenodd;fill:rgb(53.725493%,23.921569%,0%);fill-opacity:1;" d="M 16.921875 25.890625 C 16.828125 26.175781 16.777344 26.464844 16.765625 26.765625 C 16.738281 26.980469 16.722656 27.199219 16.71875 27.421875 C 16.699219 27.183594 16.699219 26.941406 16.71875 26.703125 C 16.738281 26.417969 16.804688 26.144531 16.921875 25.890625 Z M 16.921875 25.890625 "/>
<use xlink:href="#surface38" mask="url(#mask11)"/>
<use xlink:href="#surface41" mask="url(#mask12)"/>
<use xlink:href="#surface44" mask="url(#mask13)"/>
<use xlink:href="#surface47" mask="url(#mask14)"/>
</g>
</svg>
